# xmcd
#
# Track frame offsets:
#	300
#	16564
#	36635
#	52615
#	68789
#	79922
#	91410
#	103660
#	114063
#	127390
#	137890
#	149464
#	161002
#	172209
#	185588
#	194587
#	208044
#	220724
#
# Disc length: 3084 seconds
#
# Revision: 1
# Processed by: cddbd v1.5.1PL0 Copyright (c) Steve Scherf et al.
# Submitted via: audiograbber 1.83.01
#
DISCID=0e0c0812
DTITLE=John Lee Hooker - Dusty Road - CD #2 - Boom Boom (Pizzazz - Import)
DYEAR=2004
DGENRE=Blues
TTITLE0=Dirty Ground Hog
TTITLE1=Half A Stranger
TTITLE2=One Way Ticket
TTITLE3=It Serves M Right To Suffer
TTITLE4=Send Me Your Pillow
TTITLE5=Boom Boom
TTITLE6=I'm Mad Again
TTITLE7=Want Ad Blues
TTITLE8=Birmingham Blues
TTITLE9=Big Legs, Tight Skirt
TTITLE10=This Is Hip
TTITLE11=What Do You Say
TTITLE12=Bottle Up And Go
TTITLE13=Don't Look Back
TTITLE14=You Know I Love You
TTITLE15=I'm Going Upstairs
TTITLE16=Drug Store Woman
TTITLE17=She's Mine
EXTD=2004 Dusty Road - 2 CD Set ((MPORT]\nby Pizzazz (Atom Music Ltd, Germany)
EXTT0=
EXTT1=
EXTT2=
EXTT3=
EXTT4=
EXTT5=
EXTT6=
EXTT7=
EXTT8=
EXTT9=
EXTT10=
EXTT11=
EXTT12=
EXTT13=
EXTT14=
EXTT15=
EXTT16=
EXTT17=
PLAYORDER=
